# File created by Blade
# Date/Time:  Thu Sep 25 19:04:16 2014
# Frame Rate: 120.000 fps
#------------------------------------------------------
:FULLY-SPECIFIED
:DEGREES
2143
root 4.030475 25.611051 -9.931400 34.002297 16.376600 -5.478043
Spine -1.999734 4.676757 1.865600
Head -57.718785 -10.443993 17.861427
LeftShoulder -2.864665 9.404242 23.669362
LeftArm 31.645908 17.910182 -60.528594
LeftForeArm 9.514729 0.000000 38.724942
LeftHand -33.114273 0.000000 11.549724
LeftHandThumb1 -26.253704 0.000000 33.147579
RightShoulder -12.727382 17.430447 -23.221741
RightArm 1.813706 -53.839303 97.162073
RightForeArm -33.619795 0.000000 46.973482
RightHand -1.275232 -0.000000 -13.703084
RightHandThumb1 -24.326973 -0.000000 -32.862282
LeftUpLeg -79.399971 32.909851 11.423882
LeftLeg 56.795491 -0.000000 -0.000000
LeftFoot -11.889165 -1.594359 -24.428751
LeftToeBase 2.787569 -0.000000 -0.000000
RightUpLeg -64.742764 -24.789185 -7.272414
RightLeg 63.592636 -0.000000 -0.000000
RightFoot -24.672826 -19.701602 20.442845
RightToeBase 1.332076 -0.000000 -0.000000
2144
root 3.777761 25.662556 -9.858094 33.407163 15.899653 -5.283797
Spine -1.980387 4.810857 1.953266
Head -57.095000 -10.559393 17.131838
LeftShoulder -3.186554 9.890835 23.219577
LeftArm 31.196036 18.167069 -61.552233
LeftForeArm 9.279637 0.000000 37.884792
LeftHand -32.928968 -0.000000 11.585302
LeftHandThumb1 -26.253704 0.000000 33.147579
RightShoulder -12.590098 17.252897 -23.291557
RightArm 1.973472 -54.226520 96.970372
RightForeArm -33.419512 -0.000000 46.616478
RightHand -1.213436 0.000000 -13.370779
RightHandThumb1 -24.326973 -0.000000 -32.862282
LeftUpLeg -77.514696 33.072229 12.313926
LeftLeg 55.411823 -0.000000 -0.000000
LeftFoot -11.492055 -1.062920 -24.149887
LeftToeBase 3.547212 -0.000000 -0.000000
RightUpLeg -64.333810 -24.150530 -7.508264
RightLeg 63.821400 -0.000000 -0.000000
RightFoot -25.118179 -19.853784 20.086412
RightToeBase 1.260382 -0.000000 -0.000000
2145
root 3.529942 25.722384 -9.778567 32.781594 15.435300 -5.167648
Spine -1.967025 4.927338 2.171100
Head -56.398145 -10.617238 16.291649
LeftShoulder -3.508351 10.392330 22.689893
LeftArm 30.575651 18.278497 -62.676589
LeftForeArm 9.200229 0.000000 37.185960
LeftHand -32.866329 0.000000 11.237501
LeftHandThumb1 -26.253704 0.000000 33.147579
RightShoulder -12.481141 17.072043 -23.356301
RightArm 2.199116 -54.682541 96.638286
RightForeArm -33.177880 -0.000000 46.334827
RightHand -1.292060 0.000000 -12.810755
RightHandThumb1 -24.326973 -0.000000 -32.862282
LeftUpLeg -75.451492 33.108903 13.500861
LeftLeg 53.977027 -0.000000 -0.000000
LeftFoot -11.069149 -0.436634 -24.004651
LeftToeBase 4.303688 -0.000000 -0.000000
RightUpLeg -63.995922 -23.628389 -7.483855
RightLeg 64.100194 -0.000000 -0.000000
RightFoot -25.483897 -20.133957 19.810230
RightToeBase 1.120500 -0.000000 -0.000000
2146
root 3.287271 25.794289 -9.703281 32.185894 14.962305 -5.090623
Spine -1.996661 5.093949 2.454908
Head -55.658566 -10.717011 15.360914
LeftShoulder -3.806576 10.840875 22.136284
LeftArm 29.865348 18.359603 -63.848644
LeftForeArm 9.072240 -0.000000 36.525227
LeftHand -32.838717 -0.000000 10.390449
LeftHandThumb1 -26.253704 0.000000 33.147579
RightShoulder -12.414616 16.923097 -23.477489
RightArm 2.418441 -55.173964 96.271708
RightForeArm -33.215266 -0.000000 46.018481
RightHand -1.311862 -0.000000 -12.104094
RightHandThumb1 -24.326973 -0.000000 -32.862282
LeftUpLeg -73.421630 33.198131 14.570697
LeftLeg 52.418499 -0.000000 -0.000000
LeftFoot -10.522697 0.154389 -24.014207
LeftToeBase 4.621179 -0.000000 -0.000000
RightUpLeg -63.807556 -23.250606 -7.238575
RightLeg 64.475655 -0.000000 -0.000000
RightFoot -25.688333 -20.484484 19.324256
RightToeBase 1.268039 -0.000000 -0.000000
2147
root 3.053478 25.874792 -9.623610 31.577497 14.432228 -4.993408
Spine -2.008888 5.276827 2.701260
Head -54.892211 -10.674146 14.354451
LeftShoulder -4.165175 11.274574 21.508233
LeftArm 29.158741 18.453579 -64.911231
LeftForeArm 8.828695 -0.000000 35.856606
LeftHand -32.707125 -0.000000 10.322492
LeftHandThumb1 -26.253704 0.000000 33.147579
RightShoulder -12.392420 16.696425 -23.569635
RightArm 2.839849 -55.770280 95.713490
RightForeArm -32.881760 -0.000000 45.646743
RightHand -1.198084 -0.000000 -11.684948
RightHandThumb1 -24.326973 -0.000000 -32.862282
LeftUpLeg -71.156235 33.110883 15.858045
LeftLeg 50.790009 -0.000000 -0.000000
LeftFoot -9.965594 0.844930 -24.176574
LeftToeBase 5.224992 -0.000000 -0.000000
RightUpLeg -63.621760 -22.951175 -6.997859
RightLeg 64.835059 -0.000000 -0.000000
RightFoot -25.708094 -20.559012 18.821912
RightToeBase 1.718663 -0.000000 -0.000000
